<mxfile host="app.diagrams.net" modified="2023-10-30T02:49:01.656Z" agent="Mozilla/5.0 (Windows NT 10.0; Win64; x64) AppleWebKit/537.36 (KHTML, like Gecko) Chrome/118.0.0.0 Safari/537.36" etag="hFcKl9LV6mmbgSXoUhRs" version="22.0.8" type="github">
  <diagram id="R2lEEEUBdFMjLlhIrx00" name="Page-1">
    <mxGraphModel dx="2412" dy="833" grid="1" gridSize="10" guides="1" tooltips="1" connect="1" arrows="1" fold="1" page="1" pageScale="1" pageWidth="850" pageHeight="1100" math="0" shadow="0" extFonts="Permanent Marker^https://fonts.googleapis.com/css?family=Permanent+Marker">
      <root>
        <mxCell id="0" />
        <mxCell id="1" parent="0" />
        <mxCell id="UUBswNinvHV-n9F3zUPU-14" style="edgeStyle=orthogonalEdgeStyle;rounded=0;orthogonalLoop=1;jettySize=auto;html=1;exitX=0.5;exitY=1;exitDx=0;exitDy=0;entryX=0.5;entryY=0;entryDx=0;entryDy=0;endArrow=none;endFill=0;" parent="1" source="UUBswNinvHV-n9F3zUPU-1" target="UUBswNinvHV-n9F3zUPU-7" edge="1">
          <mxGeometry relative="1" as="geometry" />
        </mxCell>
        <mxCell id="UUBswNinvHV-n9F3zUPU-20" style="edgeStyle=orthogonalEdgeStyle;rounded=0;orthogonalLoop=1;jettySize=auto;html=1;exitX=1;exitY=0.5;exitDx=0;exitDy=0;entryX=0;entryY=0.5;entryDx=0;entryDy=0;endArrow=none;endFill=0;" parent="1" source="UUBswNinvHV-n9F3zUPU-1" target="UUBswNinvHV-n9F3zUPU-10" edge="1">
          <mxGeometry relative="1" as="geometry" />
        </mxCell>
        <mxCell id="v0DrafONalcWk9p2pyet-10" value="m" style="edgeLabel;html=1;align=center;verticalAlign=middle;resizable=0;points=[];" vertex="1" connectable="0" parent="UUBswNinvHV-n9F3zUPU-20">
          <mxGeometry x="-0.3689" y="-1" relative="1" as="geometry">
            <mxPoint x="-8" y="-11" as="offset" />
          </mxGeometry>
        </mxCell>
        <mxCell id="UUBswNinvHV-n9F3zUPU-22" style="edgeStyle=orthogonalEdgeStyle;rounded=0;orthogonalLoop=1;jettySize=auto;html=1;exitX=0;exitY=0.5;exitDx=0;exitDy=0;entryX=0.5;entryY=0;entryDx=0;entryDy=0;endArrow=none;endFill=0;" parent="1" source="UUBswNinvHV-n9F3zUPU-1" target="UUBswNinvHV-n9F3zUPU-12" edge="1">
          <mxGeometry relative="1" as="geometry" />
        </mxCell>
        <mxCell id="v0DrafONalcWk9p2pyet-55" value="1" style="edgeLabel;html=1;align=center;verticalAlign=middle;resizable=0;points=[];" vertex="1" connectable="0" parent="UUBswNinvHV-n9F3zUPU-22">
          <mxGeometry x="-0.8633" y="-1" relative="1" as="geometry">
            <mxPoint y="-9" as="offset" />
          </mxGeometry>
        </mxCell>
        <mxCell id="UUBswNinvHV-n9F3zUPU-1" value="读者" style="whiteSpace=wrap;html=1;align=center;" parent="1" vertex="1">
          <mxGeometry x="310" y="290" width="100" height="40" as="geometry" />
        </mxCell>
        <mxCell id="UUBswNinvHV-n9F3zUPU-2" value="读者类别" style="whiteSpace=wrap;html=1;align=center;" parent="1" vertex="1">
          <mxGeometry x="710" y="290" width="100" height="40" as="geometry" />
        </mxCell>
        <mxCell id="UUBswNinvHV-n9F3zUPU-16" style="edgeStyle=orthogonalEdgeStyle;rounded=0;orthogonalLoop=1;jettySize=auto;html=1;exitX=0.5;exitY=1;exitDx=0;exitDy=0;entryX=0.5;entryY=0;entryDx=0;entryDy=0;endArrow=none;endFill=0;" parent="1" source="UUBswNinvHV-n9F3zUPU-3" target="UUBswNinvHV-n9F3zUPU-8" edge="1">
          <mxGeometry relative="1" as="geometry" />
        </mxCell>
        <mxCell id="UUBswNinvHV-n9F3zUPU-18" style="edgeStyle=orthogonalEdgeStyle;rounded=0;orthogonalLoop=1;jettySize=auto;html=1;exitX=1;exitY=0.5;exitDx=0;exitDy=0;entryX=0;entryY=0.5;entryDx=0;entryDy=0;endArrow=none;endFill=0;" parent="1" source="UUBswNinvHV-n9F3zUPU-3" target="UUBswNinvHV-n9F3zUPU-9" edge="1">
          <mxGeometry relative="1" as="geometry" />
        </mxCell>
        <mxCell id="v0DrafONalcWk9p2pyet-61" value="1" style="edgeLabel;html=1;align=center;verticalAlign=middle;resizable=0;points=[];" vertex="1" connectable="0" parent="UUBswNinvHV-n9F3zUPU-18">
          <mxGeometry x="-0.708" relative="1" as="geometry">
            <mxPoint y="-10" as="offset" />
          </mxGeometry>
        </mxCell>
        <mxCell id="UUBswNinvHV-n9F3zUPU-3" value="图书借阅记录" style="whiteSpace=wrap;html=1;align=center;" parent="1" vertex="1">
          <mxGeometry x="310" y="570" width="100" height="40" as="geometry" />
        </mxCell>
        <mxCell id="UUBswNinvHV-n9F3zUPU-4" value="图书" style="whiteSpace=wrap;html=1;align=center;" parent="1" vertex="1">
          <mxGeometry x="690" y="570" width="100" height="40" as="geometry" />
        </mxCell>
        <mxCell id="UUBswNinvHV-n9F3zUPU-5" value="管理员" style="whiteSpace=wrap;html=1;align=center;" parent="1" vertex="1">
          <mxGeometry x="310" y="840" width="100" height="40" as="geometry" />
        </mxCell>
        <mxCell id="UUBswNinvHV-n9F3zUPU-26" style="edgeStyle=orthogonalEdgeStyle;rounded=0;orthogonalLoop=1;jettySize=auto;html=1;exitX=0.5;exitY=1;exitDx=0;exitDy=0;entryX=0.5;entryY=0;entryDx=0;entryDy=0;endArrow=none;endFill=0;" parent="1" source="UUBswNinvHV-n9F3zUPU-6" target="UUBswNinvHV-n9F3zUPU-13" edge="1">
          <mxGeometry relative="1" as="geometry" />
        </mxCell>
        <mxCell id="v0DrafONalcWk9p2pyet-58" value="m" style="edgeLabel;html=1;align=center;verticalAlign=middle;resizable=0;points=[];" vertex="1" connectable="0" parent="UUBswNinvHV-n9F3zUPU-26">
          <mxGeometry x="-0.7891" y="-1" relative="1" as="geometry">
            <mxPoint x="-9" y="-2" as="offset" />
          </mxGeometry>
        </mxCell>
        <mxCell id="UUBswNinvHV-n9F3zUPU-30" style="edgeStyle=orthogonalEdgeStyle;rounded=0;orthogonalLoop=1;jettySize=auto;html=1;exitX=1;exitY=0.5;exitDx=0;exitDy=0;entryX=0;entryY=0.5;entryDx=0;entryDy=0;endArrow=none;endFill=0;" parent="1" source="UUBswNinvHV-n9F3zUPU-6" target="UUBswNinvHV-n9F3zUPU-11" edge="1">
          <mxGeometry relative="1" as="geometry" />
        </mxCell>
        <mxCell id="v0DrafONalcWk9p2pyet-59" value="1" style="edgeLabel;html=1;align=center;verticalAlign=middle;resizable=0;points=[];" vertex="1" connectable="0" parent="UUBswNinvHV-n9F3zUPU-30">
          <mxGeometry x="-0.5257" y="2" relative="1" as="geometry">
            <mxPoint y="-8" as="offset" />
          </mxGeometry>
        </mxCell>
        <mxCell id="UUBswNinvHV-n9F3zUPU-6" value="个人违规记录" style="whiteSpace=wrap;html=1;align=center;" parent="1" vertex="1">
          <mxGeometry x="-90" y="570" width="100" height="40" as="geometry" />
        </mxCell>
        <mxCell id="UUBswNinvHV-n9F3zUPU-15" style="edgeStyle=orthogonalEdgeStyle;rounded=0;orthogonalLoop=1;jettySize=auto;html=1;exitX=0.5;exitY=1;exitDx=0;exitDy=0;entryX=0.5;entryY=0;entryDx=0;entryDy=0;endArrow=none;endFill=0;" parent="1" source="UUBswNinvHV-n9F3zUPU-7" target="UUBswNinvHV-n9F3zUPU-3" edge="1">
          <mxGeometry relative="1" as="geometry" />
        </mxCell>
        <mxCell id="UUBswNinvHV-n9F3zUPU-7" value="拥有" style="shape=rhombus;perimeter=rhombusPerimeter;whiteSpace=wrap;html=1;align=center;" parent="1" vertex="1">
          <mxGeometry x="300" y="380" width="120" height="60" as="geometry" />
        </mxCell>
        <mxCell id="UUBswNinvHV-n9F3zUPU-17" style="edgeStyle=orthogonalEdgeStyle;rounded=0;orthogonalLoop=1;jettySize=auto;html=1;exitX=0.5;exitY=1;exitDx=0;exitDy=0;entryX=0.5;entryY=0;entryDx=0;entryDy=0;endArrow=none;endFill=0;" parent="1" source="UUBswNinvHV-n9F3zUPU-8" target="UUBswNinvHV-n9F3zUPU-5" edge="1">
          <mxGeometry relative="1" as="geometry" />
        </mxCell>
        <mxCell id="UUBswNinvHV-n9F3zUPU-8" value="管理" style="shape=rhombus;perimeter=rhombusPerimeter;whiteSpace=wrap;html=1;align=center;" parent="1" vertex="1">
          <mxGeometry x="300" y="690" width="120" height="60" as="geometry" />
        </mxCell>
        <mxCell id="UUBswNinvHV-n9F3zUPU-19" style="edgeStyle=orthogonalEdgeStyle;rounded=0;orthogonalLoop=1;jettySize=auto;html=1;exitX=1;exitY=0.5;exitDx=0;exitDy=0;entryX=0;entryY=0.5;entryDx=0;entryDy=0;endArrow=none;endFill=0;" parent="1" source="UUBswNinvHV-n9F3zUPU-9" target="UUBswNinvHV-n9F3zUPU-4" edge="1">
          <mxGeometry relative="1" as="geometry" />
        </mxCell>
        <mxCell id="v0DrafONalcWk9p2pyet-62" value="1" style="edgeLabel;html=1;align=center;verticalAlign=middle;resizable=0;points=[];" vertex="1" connectable="0" parent="UUBswNinvHV-n9F3zUPU-19">
          <mxGeometry x="0.22" y="1" relative="1" as="geometry">
            <mxPoint x="3" y="-9" as="offset" />
          </mxGeometry>
        </mxCell>
        <mxCell id="UUBswNinvHV-n9F3zUPU-9" value="包含" style="shape=rhombus;perimeter=rhombusPerimeter;whiteSpace=wrap;html=1;align=center;" parent="1" vertex="1">
          <mxGeometry x="510" y="560" width="120" height="60" as="geometry" />
        </mxCell>
        <mxCell id="UUBswNinvHV-n9F3zUPU-21" style="edgeStyle=orthogonalEdgeStyle;rounded=0;orthogonalLoop=1;jettySize=auto;html=1;exitX=1;exitY=0.5;exitDx=0;exitDy=0;entryX=0;entryY=0.5;entryDx=0;entryDy=0;endArrow=none;endFill=0;" parent="1" source="UUBswNinvHV-n9F3zUPU-10" target="UUBswNinvHV-n9F3zUPU-2" edge="1">
          <mxGeometry relative="1" as="geometry" />
        </mxCell>
        <mxCell id="v0DrafONalcWk9p2pyet-9" value="1" style="edgeLabel;html=1;align=center;verticalAlign=middle;resizable=0;points=[];" vertex="1" connectable="0" parent="UUBswNinvHV-n9F3zUPU-21">
          <mxGeometry x="-0.152" y="-2" relative="1" as="geometry">
            <mxPoint x="38" y="-12" as="offset" />
          </mxGeometry>
        </mxCell>
        <mxCell id="UUBswNinvHV-n9F3zUPU-10" value="属于" style="shape=rhombus;perimeter=rhombusPerimeter;whiteSpace=wrap;html=1;align=center;" parent="1" vertex="1">
          <mxGeometry x="490" y="280" width="120" height="60" as="geometry" />
        </mxCell>
        <mxCell id="UUBswNinvHV-n9F3zUPU-25" style="edgeStyle=orthogonalEdgeStyle;rounded=0;orthogonalLoop=1;jettySize=auto;html=1;exitX=1;exitY=0.5;exitDx=0;exitDy=0;entryX=0;entryY=0.5;entryDx=0;entryDy=0;endArrow=none;endFill=0;" parent="1" source="UUBswNinvHV-n9F3zUPU-11" target="UUBswNinvHV-n9F3zUPU-3" edge="1">
          <mxGeometry relative="1" as="geometry" />
        </mxCell>
        <mxCell id="v0DrafONalcWk9p2pyet-60" value="1" style="edgeLabel;html=1;align=center;verticalAlign=middle;resizable=0;points=[];" vertex="1" connectable="0" parent="UUBswNinvHV-n9F3zUPU-25">
          <mxGeometry x="0.5564" y="1" relative="1" as="geometry">
            <mxPoint y="-9" as="offset" />
          </mxGeometry>
        </mxCell>
        <mxCell id="UUBswNinvHV-n9F3zUPU-11" value="包含" style="shape=rhombus;perimeter=rhombusPerimeter;whiteSpace=wrap;html=1;align=center;" parent="1" vertex="1">
          <mxGeometry x="80" y="560" width="120" height="60" as="geometry" />
        </mxCell>
        <mxCell id="UUBswNinvHV-n9F3zUPU-23" style="edgeStyle=orthogonalEdgeStyle;rounded=0;orthogonalLoop=1;jettySize=auto;html=1;exitX=0.5;exitY=1;exitDx=0;exitDy=0;entryX=0.5;entryY=0;entryDx=0;entryDy=0;endArrow=none;endFill=0;" parent="1" source="UUBswNinvHV-n9F3zUPU-12" target="UUBswNinvHV-n9F3zUPU-6" edge="1">
          <mxGeometry relative="1" as="geometry" />
        </mxCell>
        <mxCell id="v0DrafONalcWk9p2pyet-56" value="n" style="edgeLabel;html=1;align=center;verticalAlign=middle;resizable=0;points=[];" vertex="1" connectable="0" parent="UUBswNinvHV-n9F3zUPU-23">
          <mxGeometry x="0.5767" relative="1" as="geometry">
            <mxPoint x="-10" y="5" as="offset" />
          </mxGeometry>
        </mxCell>
        <mxCell id="UUBswNinvHV-n9F3zUPU-12" value="拥有" style="shape=rhombus;perimeter=rhombusPerimeter;whiteSpace=wrap;html=1;align=center;" parent="1" vertex="1">
          <mxGeometry x="-100" y="390" width="120" height="60" as="geometry" />
        </mxCell>
        <mxCell id="UUBswNinvHV-n9F3zUPU-27" style="edgeStyle=orthogonalEdgeStyle;rounded=0;orthogonalLoop=1;jettySize=auto;html=1;exitX=0.5;exitY=1;exitDx=0;exitDy=0;entryX=0;entryY=0.5;entryDx=0;entryDy=0;endArrow=none;endFill=0;" parent="1" source="UUBswNinvHV-n9F3zUPU-13" target="UUBswNinvHV-n9F3zUPU-5" edge="1">
          <mxGeometry relative="1" as="geometry" />
        </mxCell>
        <mxCell id="v0DrafONalcWk9p2pyet-57" value="1" style="edgeLabel;html=1;align=center;verticalAlign=middle;resizable=0;points=[];" vertex="1" connectable="0" parent="UUBswNinvHV-n9F3zUPU-27">
          <mxGeometry x="0.8819" y="1" relative="1" as="geometry">
            <mxPoint x="5" y="-9" as="offset" />
          </mxGeometry>
        </mxCell>
        <mxCell id="UUBswNinvHV-n9F3zUPU-13" value="记录" style="shape=rhombus;perimeter=rhombusPerimeter;whiteSpace=wrap;html=1;align=center;" parent="1" vertex="1">
          <mxGeometry x="-100" y="720" width="120" height="60" as="geometry" />
        </mxCell>
        <mxCell id="v0DrafONalcWk9p2pyet-30" style="rounded=0;orthogonalLoop=1;jettySize=auto;html=1;exitX=0.5;exitY=1;exitDx=0;exitDy=0;entryX=0.5;entryY=0;entryDx=0;entryDy=0;endArrow=none;endFill=0;" edge="1" parent="1" source="v0DrafONalcWk9p2pyet-1" target="UUBswNinvHV-n9F3zUPU-1">
          <mxGeometry relative="1" as="geometry" />
        </mxCell>
        <mxCell id="v0DrafONalcWk9p2pyet-1" value="读者编号" style="ellipse;whiteSpace=wrap;html=1;align=center;fontStyle=4;" vertex="1" parent="1">
          <mxGeometry x="220" y="180" width="100" height="40" as="geometry" />
        </mxCell>
        <mxCell id="v0DrafONalcWk9p2pyet-32" style="rounded=0;orthogonalLoop=1;jettySize=auto;html=1;exitX=0.5;exitY=1;exitDx=0;exitDy=0;entryX=0.5;entryY=0;entryDx=0;entryDy=0;endArrow=none;endFill=0;" edge="1" parent="1" source="v0DrafONalcWk9p2pyet-2" target="UUBswNinvHV-n9F3zUPU-2">
          <mxGeometry relative="1" as="geometry" />
        </mxCell>
        <mxCell id="v0DrafONalcWk9p2pyet-2" value="类别编号" style="ellipse;whiteSpace=wrap;html=1;align=center;fontStyle=4;" vertex="1" parent="1">
          <mxGeometry x="640" y="200" width="100" height="40" as="geometry" />
        </mxCell>
        <mxCell id="v0DrafONalcWk9p2pyet-48" style="rounded=0;orthogonalLoop=1;jettySize=auto;html=1;exitX=0.5;exitY=0;exitDx=0;exitDy=0;endArrow=none;endFill=0;" edge="1" parent="1" source="v0DrafONalcWk9p2pyet-3">
          <mxGeometry relative="1" as="geometry">
            <mxPoint x="360" y="880" as="targetPoint" />
          </mxGeometry>
        </mxCell>
        <mxCell id="v0DrafONalcWk9p2pyet-3" value="管理员编号" style="ellipse;whiteSpace=wrap;html=1;align=center;fontStyle=4;" vertex="1" parent="1">
          <mxGeometry x="260" y="940" width="100" height="40" as="geometry" />
        </mxCell>
        <mxCell id="v0DrafONalcWk9p2pyet-35" style="rounded=0;orthogonalLoop=1;jettySize=auto;html=1;exitX=0.5;exitY=1;exitDx=0;exitDy=0;entryX=0.5;entryY=0;entryDx=0;entryDy=0;endArrow=none;endFill=0;" edge="1" parent="1" source="v0DrafONalcWk9p2pyet-4" target="UUBswNinvHV-n9F3zUPU-4">
          <mxGeometry relative="1" as="geometry" />
        </mxCell>
        <mxCell id="v0DrafONalcWk9p2pyet-4" value="图书编号" style="ellipse;whiteSpace=wrap;html=1;align=center;fontStyle=4;" vertex="1" parent="1">
          <mxGeometry x="690" y="460" width="100" height="40" as="geometry" />
        </mxCell>
        <mxCell id="v0DrafONalcWk9p2pyet-41" style="rounded=0;orthogonalLoop=1;jettySize=auto;html=1;exitX=0.5;exitY=0;exitDx=0;exitDy=0;entryX=0.5;entryY=1;entryDx=0;entryDy=0;endArrow=none;endFill=0;" edge="1" parent="1" source="v0DrafONalcWk9p2pyet-6" target="UUBswNinvHV-n9F3zUPU-3">
          <mxGeometry relative="1" as="geometry" />
        </mxCell>
        <mxCell id="v0DrafONalcWk9p2pyet-6" value="图书借阅记录编号" style="ellipse;whiteSpace=wrap;html=1;align=center;fontStyle=4;" vertex="1" parent="1">
          <mxGeometry x="400" y="640" width="100" height="40" as="geometry" />
        </mxCell>
        <mxCell id="v0DrafONalcWk9p2pyet-52" style="rounded=0;orthogonalLoop=1;jettySize=auto;html=1;exitX=0.5;exitY=1;exitDx=0;exitDy=0;entryX=0;entryY=0.5;entryDx=0;entryDy=0;endArrow=none;endFill=0;" edge="1" parent="1" source="v0DrafONalcWk9p2pyet-7" target="UUBswNinvHV-n9F3zUPU-6">
          <mxGeometry relative="1" as="geometry" />
        </mxCell>
        <mxCell id="v0DrafONalcWk9p2pyet-7" value="个人违规记录编号" style="ellipse;whiteSpace=wrap;html=1;align=center;fontStyle=4;" vertex="1" parent="1">
          <mxGeometry x="-190" y="490" width="100" height="40" as="geometry" />
        </mxCell>
        <mxCell id="v0DrafONalcWk9p2pyet-31" style="rounded=0;orthogonalLoop=1;jettySize=auto;html=1;exitX=0.5;exitY=1;exitDx=0;exitDy=0;endArrow=none;endFill=0;" edge="1" parent="1" source="v0DrafONalcWk9p2pyet-11">
          <mxGeometry relative="1" as="geometry">
            <mxPoint x="360" y="290" as="targetPoint" />
          </mxGeometry>
        </mxCell>
        <mxCell id="v0DrafONalcWk9p2pyet-11" value="密码" style="ellipse;whiteSpace=wrap;html=1;align=center;" vertex="1" parent="1">
          <mxGeometry x="360" y="180" width="100" height="40" as="geometry" />
        </mxCell>
        <mxCell id="v0DrafONalcWk9p2pyet-33" style="rounded=0;orthogonalLoop=1;jettySize=auto;html=1;exitX=0.5;exitY=1;exitDx=0;exitDy=0;endArrow=none;endFill=0;" edge="1" parent="1" source="v0DrafONalcWk9p2pyet-12">
          <mxGeometry relative="1" as="geometry">
            <mxPoint x="760" y="290" as="targetPoint" />
          </mxGeometry>
        </mxCell>
        <mxCell id="v0DrafONalcWk9p2pyet-12" value="单次借阅上限" style="ellipse;whiteSpace=wrap;html=1;align=center;" vertex="1" parent="1">
          <mxGeometry x="770" y="220" width="100" height="40" as="geometry" />
        </mxCell>
        <mxCell id="v0DrafONalcWk9p2pyet-34" style="rounded=0;orthogonalLoop=1;jettySize=auto;html=1;exitX=0;exitY=0.5;exitDx=0;exitDy=0;entryX=1;entryY=0.5;entryDx=0;entryDy=0;endArrow=none;endFill=0;" edge="1" parent="1" source="v0DrafONalcWk9p2pyet-13" target="UUBswNinvHV-n9F3zUPU-2">
          <mxGeometry relative="1" as="geometry" />
        </mxCell>
        <mxCell id="v0DrafONalcWk9p2pyet-13" value="借阅时长" style="ellipse;whiteSpace=wrap;html=1;align=center;" vertex="1" parent="1">
          <mxGeometry x="880" y="350" width="100" height="40" as="geometry" />
        </mxCell>
        <mxCell id="v0DrafONalcWk9p2pyet-47" style="rounded=0;orthogonalLoop=1;jettySize=auto;html=1;exitX=0.5;exitY=0;exitDx=0;exitDy=0;entryX=0.5;entryY=1;entryDx=0;entryDy=0;endArrow=none;endFill=0;" edge="1" parent="1" source="v0DrafONalcWk9p2pyet-14" target="UUBswNinvHV-n9F3zUPU-5">
          <mxGeometry relative="1" as="geometry" />
        </mxCell>
        <mxCell id="v0DrafONalcWk9p2pyet-14" value="密码" style="ellipse;whiteSpace=wrap;html=1;align=center;" vertex="1" parent="1">
          <mxGeometry x="400" y="940" width="100" height="40" as="geometry" />
        </mxCell>
        <mxCell id="v0DrafONalcWk9p2pyet-36" style="rounded=0;orthogonalLoop=1;jettySize=auto;html=1;exitX=0;exitY=0.5;exitDx=0;exitDy=0;entryX=1;entryY=0.5;entryDx=0;entryDy=0;endArrow=none;endFill=0;" edge="1" parent="1" source="v0DrafONalcWk9p2pyet-15" target="UUBswNinvHV-n9F3zUPU-4">
          <mxGeometry relative="1" as="geometry" />
        </mxCell>
        <mxCell id="v0DrafONalcWk9p2pyet-15" value="ISBN" style="ellipse;whiteSpace=wrap;html=1;align=center;" vertex="1" parent="1">
          <mxGeometry x="840" y="540" width="100" height="40" as="geometry" />
        </mxCell>
        <mxCell id="v0DrafONalcWk9p2pyet-37" style="rounded=0;orthogonalLoop=1;jettySize=auto;html=1;exitX=0;exitY=0.5;exitDx=0;exitDy=0;endArrow=none;endFill=0;" edge="1" parent="1" source="v0DrafONalcWk9p2pyet-16">
          <mxGeometry relative="1" as="geometry">
            <mxPoint x="790" y="590" as="targetPoint" />
          </mxGeometry>
        </mxCell>
        <mxCell id="v0DrafONalcWk9p2pyet-16" value="图书名称" style="ellipse;whiteSpace=wrap;html=1;align=center;" vertex="1" parent="1">
          <mxGeometry x="880" y="610" width="100" height="40" as="geometry" />
        </mxCell>
        <mxCell id="v0DrafONalcWk9p2pyet-38" style="rounded=0;orthogonalLoop=1;jettySize=auto;html=1;exitX=0.5;exitY=0;exitDx=0;exitDy=0;endArrow=none;endFill=0;" edge="1" parent="1" source="v0DrafONalcWk9p2pyet-17">
          <mxGeometry relative="1" as="geometry">
            <mxPoint x="790" y="590" as="targetPoint" />
          </mxGeometry>
        </mxCell>
        <mxCell id="v0DrafONalcWk9p2pyet-17" value="图书类别" style="ellipse;whiteSpace=wrap;html=1;align=center;" vertex="1" parent="1">
          <mxGeometry x="830" y="690" width="100" height="40" as="geometry" />
        </mxCell>
        <mxCell id="v0DrafONalcWk9p2pyet-39" style="rounded=0;orthogonalLoop=1;jettySize=auto;html=1;exitX=0.5;exitY=0;exitDx=0;exitDy=0;entryX=0.5;entryY=1;entryDx=0;entryDy=0;endArrow=none;endFill=0;" edge="1" parent="1" source="v0DrafONalcWk9p2pyet-18" target="UUBswNinvHV-n9F3zUPU-4">
          <mxGeometry relative="1" as="geometry" />
        </mxCell>
        <mxCell id="v0DrafONalcWk9p2pyet-18" value="图书简介" style="ellipse;whiteSpace=wrap;html=1;align=center;" vertex="1" parent="1">
          <mxGeometry x="710" y="720" width="100" height="40" as="geometry" />
        </mxCell>
        <mxCell id="v0DrafONalcWk9p2pyet-40" style="rounded=0;orthogonalLoop=1;jettySize=auto;html=1;exitX=0.5;exitY=0;exitDx=0;exitDy=0;endArrow=none;endFill=0;" edge="1" parent="1" source="v0DrafONalcWk9p2pyet-19">
          <mxGeometry relative="1" as="geometry">
            <mxPoint x="740" y="610" as="targetPoint" />
          </mxGeometry>
        </mxCell>
        <mxCell id="v0DrafONalcWk9p2pyet-19" value="借阅状态" style="ellipse;whiteSpace=wrap;html=1;align=center;" vertex="1" parent="1">
          <mxGeometry x="600" y="660" width="100" height="40" as="geometry" />
        </mxCell>
        <mxCell id="v0DrafONalcWk9p2pyet-44" style="rounded=0;orthogonalLoop=1;jettySize=auto;html=1;exitX=1;exitY=0.5;exitDx=0;exitDy=0;endArrow=none;endFill=0;" edge="1" parent="1" source="v0DrafONalcWk9p2pyet-22">
          <mxGeometry relative="1" as="geometry">
            <mxPoint x="360" y="570" as="targetPoint" />
          </mxGeometry>
        </mxCell>
        <mxCell id="v0DrafONalcWk9p2pyet-22" value="借阅时间" style="ellipse;whiteSpace=wrap;html=1;align=center;" vertex="1" parent="1">
          <mxGeometry x="180" y="530" width="100" height="40" as="geometry" />
        </mxCell>
        <mxCell id="v0DrafONalcWk9p2pyet-45" style="rounded=0;orthogonalLoop=1;jettySize=auto;html=1;exitX=0.5;exitY=1;exitDx=0;exitDy=0;endArrow=none;endFill=0;" edge="1" parent="1" source="v0DrafONalcWk9p2pyet-23">
          <mxGeometry relative="1" as="geometry">
            <mxPoint x="360" y="570" as="targetPoint" />
          </mxGeometry>
        </mxCell>
        <mxCell id="v0DrafONalcWk9p2pyet-23" value="预计归还时间" style="ellipse;whiteSpace=wrap;html=1;align=center;" vertex="1" parent="1">
          <mxGeometry x="250" y="480" width="100" height="40" as="geometry" />
        </mxCell>
        <mxCell id="v0DrafONalcWk9p2pyet-46" style="rounded=0;orthogonalLoop=1;jettySize=auto;html=1;exitX=0.5;exitY=1;exitDx=0;exitDy=0;entryX=0.5;entryY=0;entryDx=0;entryDy=0;endArrow=none;endFill=0;" edge="1" parent="1" source="v0DrafONalcWk9p2pyet-24" target="UUBswNinvHV-n9F3zUPU-3">
          <mxGeometry relative="1" as="geometry" />
        </mxCell>
        <mxCell id="v0DrafONalcWk9p2pyet-24" value="实际归还时间" style="ellipse;whiteSpace=wrap;html=1;align=center;" vertex="1" parent="1">
          <mxGeometry x="380" y="500" width="100" height="40" as="geometry" />
        </mxCell>
        <mxCell id="v0DrafONalcWk9p2pyet-43" style="rounded=0;orthogonalLoop=1;jettySize=auto;html=1;exitX=0.5;exitY=0;exitDx=0;exitDy=0;entryX=0.5;entryY=1;entryDx=0;entryDy=0;endArrow=none;endFill=0;" edge="1" parent="1" source="v0DrafONalcWk9p2pyet-26" target="UUBswNinvHV-n9F3zUPU-3">
          <mxGeometry relative="1" as="geometry" />
        </mxCell>
        <mxCell id="v0DrafONalcWk9p2pyet-26" value="违规信息" style="ellipse;whiteSpace=wrap;html=1;align=center;" vertex="1" parent="1">
          <mxGeometry x="220" y="640" width="100" height="40" as="geometry" />
        </mxCell>
        <mxCell id="v0DrafONalcWk9p2pyet-54" style="rounded=0;orthogonalLoop=1;jettySize=auto;html=1;exitX=0.5;exitY=0;exitDx=0;exitDy=0;endArrow=none;endFill=0;" edge="1" parent="1" source="v0DrafONalcWk9p2pyet-27">
          <mxGeometry relative="1" as="geometry">
            <mxPoint x="-90" y="590" as="targetPoint" />
          </mxGeometry>
        </mxCell>
        <mxCell id="v0DrafONalcWk9p2pyet-27" value="违规信息" style="ellipse;whiteSpace=wrap;html=1;align=center;" vertex="1" parent="1">
          <mxGeometry x="-190" y="650" width="100" height="40" as="geometry" />
        </mxCell>
        <mxCell id="v0DrafONalcWk9p2pyet-53" style="rounded=0;orthogonalLoop=1;jettySize=auto;html=1;exitX=1;exitY=0.5;exitDx=0;exitDy=0;endArrow=none;endFill=0;" edge="1" parent="1" source="v0DrafONalcWk9p2pyet-28">
          <mxGeometry relative="1" as="geometry">
            <mxPoint x="-90" y="590" as="targetPoint" />
          </mxGeometry>
        </mxCell>
        <mxCell id="v0DrafONalcWk9p2pyet-28" value="金额" style="ellipse;whiteSpace=wrap;html=1;align=center;" vertex="1" parent="1">
          <mxGeometry x="-290" y="570" width="100" height="40" as="geometry" />
        </mxCell>
      </root>
    </mxGraphModel>
  </diagram>
</mxfile>
